<svg width="49" height="49" viewBox="0 0 49 49" fill="none" xmlns="http://www.w3.org/2000/svg">
<circle cx="24.5" cy="24.5" r="23.5" fill="white" stroke="#343F67" stroke-width="2"/>
<rect width="28" height="28" transform="translate(11 11)" fill="white"/>
<path d="M22.5373 15.0777L19.7711 16.233L16.2627 13.7864L13.8337 16.233L16.2627 19.4951L14.8458 22.4854L11 23.165V26.6311L14.8458 27.3786L15.9253 30.233L13.8337 33.5631L16.2627 36.2136L19.7711 33.9029L22.5373 34.9903L23.1446 39H26.7205L27.3952 34.9903L30.5663 33.9029L33.5349 36.2136L36.1663 33.5631L33.9398 30.233L34.8843 27.3786L39 26.6311V23.165L34.8843 22.4854L33.9398 19.4951L36.1663 16.233L33.5349 13.7864L30.2289 16.233L27.3952 15.0777L26.7205 11H23.1446L22.5373 15.0777Z" fill="#FFFCFC" stroke="#343F67" stroke-width="2"/>
<path d="M29 25.3125C29 27.7522 27.1529 29.625 25 29.625C22.8471 29.625 21 27.7522 21 25.3125C21 22.8728 22.8471 21 25 21C27.1529 21 29 22.8728 29 25.3125Z" fill="white" stroke="#343F67" stroke-width="2"/>
</svg>
