<svg width="165" height="94" viewBox="0 0 165 94" fill="none" xmlns="http://www.w3.org/2000/svg">
<rect width="164.423" height="93.6902" fill="#343F67"/>
<path fill-rule="evenodd" clip-rule="evenodd" d="M10.829 25.2282L33.4188 6.74451L32.1524 5.19653L9.56263 23.6802L10.829 25.2282ZM44.5017 4.4755L5.77631 36.1618L4.50991 34.6138L43.2353 2.92752L44.5017 4.4755ZM56.1275 1.54789L1.26652 46.4368L0.00012207 44.8888L54.8611 -9.15527e-05L56.1275 1.54789ZM153.779 68.0489L131.365 86.7443L132.646 88.2802L155.06 69.5848L153.779 68.0489ZM120.304 89.1175L158.729 57.0682L160.01 58.6042L121.584 90.6535L120.304 89.1175ZM108.706 92.1543L163.142 46.7512L164.423 48.2872L109.987 93.6903L108.706 92.1543ZM52.483 60.6427H56.2525V32.2052H52.5221V54.2169L38.1666 32.2052H34.3971V60.6427H38.1666V38.7287L52.483 60.6427ZM64.1236 58.2208C65.9205 60.0958 68.2512 61.0333 71.1158 61.0333C74.6575 61.0333 77.3137 59.6727 79.0846 56.9513L76.8775 55.2326C76.2135 56.0919 75.4387 56.782 74.5533 57.3029C73.6679 57.8237 72.5872 58.0841 71.3111 58.0841C69.5143 58.0841 68.0299 57.4461 66.858 56.1701C65.6992 54.881 65.0937 53.1948 65.0416 51.1115H79.358V49.6076C79.358 46.2352 78.5963 43.644 77.0729 41.8341C75.5494 40.0242 73.414 39.1193 70.6666 39.1193C68.9869 39.1193 67.4244 39.588 65.9791 40.5255C64.5468 41.45 63.427 42.7391 62.6197 44.3927C61.8255 46.0333 61.4283 47.9018 61.4283 49.9982V50.6622C61.4283 53.8133 62.3268 56.3328 64.1236 58.2208ZM66.9947 43.6896C67.9843 42.6219 69.2083 42.088 70.6666 42.088C72.177 42.088 73.3749 42.5958 74.2604 43.6115C75.1458 44.6141 75.6406 46.0333 75.7447 47.8693V48.1427H65.1588C65.3932 46.2287 66.0051 44.7443 66.9947 43.6896ZM106.331 39.5099L102.268 55.6622L97.2486 39.5099H94.3385L89.4166 55.3302L85.2564 39.5099H81.6627L87.7955 60.6427H90.7252L95.7252 44.6271L100.862 60.6427H103.792L109.944 39.5099H106.331ZM124.827 52.7716C125.569 53.3055 125.94 54.0607 125.94 55.0372C125.94 55.9617 125.523 56.7039 124.69 57.2638C123.87 57.8107 122.776 58.0841 121.409 58.0841C119.924 58.0841 118.727 57.7326 117.815 57.0294C116.917 56.3133 116.435 55.3497 116.37 54.1388H112.756C112.756 55.3888 113.121 56.5542 113.85 57.6349C114.592 58.7026 115.615 59.5359 116.917 60.1349C118.219 60.7339 119.716 61.0333 121.409 61.0333C123.818 61.0333 125.777 60.4669 127.288 59.3341C128.798 58.1883 129.553 56.6714 129.553 54.7833C129.553 53.6505 129.28 52.6935 128.733 51.9122C128.199 51.118 127.372 50.4409 126.253 49.881C125.133 49.3211 123.668 48.8393 121.858 48.4357C120.061 48.032 118.818 47.6089 118.128 47.1662C117.437 46.7234 117.092 46.0659 117.092 45.1935C117.092 44.269 117.463 43.5203 118.206 42.9474C118.948 42.3745 119.977 42.088 121.292 42.088C122.568 42.088 123.622 42.4461 124.456 43.1622C125.302 43.8784 125.725 44.7313 125.725 45.7208H129.358C129.358 43.7938 128.609 42.2117 127.112 40.9747C125.628 39.7378 123.687 39.1193 121.292 39.1193C119.013 39.1193 117.138 39.7182 115.667 40.9162C114.208 42.1141 113.479 43.5789 113.479 45.3107C113.479 46.3524 113.733 47.2508 114.241 48.006C114.762 48.7612 115.556 49.4122 116.624 49.9591C117.704 50.506 119.156 50.9747 120.979 51.3654C122.815 51.756 124.098 52.2247 124.827 52.7716Z" fill="white"/>
</svg>
